<?xml version="1.0" encoding="iso-8859-1"?>
<!-- Generator: Adobe Illustrator 19.0.0, SVG Export Plug-In . SVG Version: 6.00 Build 0)  -->
<svg version="1.1" id="Capa_1" xmlns="http://www.w3.org/2000/svg" xmlns:xlink="http://www.w3.org/1999/xlink" x="0px" y="0px"
	 viewBox="0 0 512 512" style="enable-background:new 0 0 512 512;" xml:space="preserve">
<path style="fill:#ABFFDB;" d="M437.761,7.5H242.712c-8.699,0-15.751,7.051-15.751,15.751v126.307h58.601
	c7.974,0,14.499,6.524,14.499,14.499v310.524c0,7.974-6.524,14.499-14.499,14.499H437.76c8.699,0,15.751-7.051,15.751-15.751V23.251
	C453.511,14.552,446.46,7.5,437.761,7.5z"/>
<g>
	<path style="fill:#92E0C0;" d="M285.563,129.557h-58.601v20.001h58.601c7.974,0,14.499,6.524,14.499,14.499v310.524
		c0,7.974-6.524,14.499-14.499,14.499h31.294c2.052-4.411,3.206-9.322,3.206-14.499V164.057
		C320.063,145.033,304.586,129.557,285.563,129.557z"/>
	<path style="fill:#92E0C0;" d="M437.761,7.5H242.712c-8.699,0-15.751,7.051-15.751,15.751v126.307h58.601
		c7.974,0,14.499,6.524,14.499,14.499v84.233H453.51V23.251C453.511,14.552,446.46,7.5,437.761,7.5z"/>
</g>
<path style="fill:#6DC296;" d="M285.563,129.557h-35.339c-1.8,0-3.26-1.46-3.26-3.26V23.251c0-8.699,7.052-15.751,15.75-15.751
	h-20.001c-8.699,0-15.751,7.051-15.751,15.751v106.305v20.001h20.001h38.599c7.974,0,14.499,6.524,14.499,14.499v84.233h20.001
	v-84.233C320.063,145.003,304.617,129.557,285.563,129.557z"/>
<path style="fill:#FF9052;" d="M290.396,40.411c15.571,0,28.193-12.623,28.193-28.193V7.5h-75.877
	c-8.699,0-15.751,7.051-15.751,15.751v17.16H290.396z"/>
<path style="fill:#FF8031;" d="M226.962,40.411h20.001v-17.16c0-8.699,7.052-15.751,15.75-15.751h-20.001
	c-8.646,0-15.751,7.004-15.751,15.751v17.16H226.962z"/>
<path style="fill:#FFFFFF;" d="M58.409,212.2v262.381c0,7.974,6.524,14.499,14.499,14.499h212.654
	c7.974,0,14.499-6.524,14.499-14.499V212.2H58.409z"/>
<g>
	<path style="fill:#E4EAF8;" d="M78.41,474.581V212.2H58.409v262.381c0,7.974,6.524,14.499,14.499,14.499h20.001
		C84.935,489.08,78.41,482.554,78.41,474.581z"/>
	<path style="fill:#E4EAF8;" d="M285.563,149.557H72.909c-7.974,0-14.499,6.524-14.499,14.499v7.853h241.653v-7.853
		C300.062,156.082,293.537,149.557,285.563,149.557z"/>
</g>
<path style="fill:#C2C7D0;" d="M58.409,171.91H78.41v-7.853c0-7.973,6.523-14.499,14.498-14.499H72.909
	c-7.963,0-14.499,6.512-14.499,14.499L58.409,171.91L58.409,171.91z"/>
<rect x="58.414" y="171.91" style="fill:#ABFFDB;" width="169.87" height="42.293"/>
<rect x="58.414" y="171.91" style="fill:#92E0C0;" width="20.001" height="42.293"/>
<rect x="226.964" y="171.91" style="fill:#FF9052;" width="73.094" height="42.293"/>
<rect x="226.964" y="171.91" style="fill:#FF8031;" width="56.553" height="42.293"/>
<rect x="226.964" y="171.91" style="fill:#FFC850;" width="36.55" height="42.293"/>
<rect x="226.964" y="171.91" style="fill:#FEA82F;" width="20.001" height="42.293"/>
<path style="fill:#ABFFDB;" d="M179.235,260.447c-43.305,0-78.537,35.231-78.537,78.537s35.232,78.537,78.537,78.537
	c38.27,0,70.215-27.522,77.132-63.808v-29.459C249.452,287.968,217.506,260.447,179.235,260.447z"/>
<path style="fill:#6DC296;" d="M179.235,284.612c-29.981,0-54.371,24.391-54.371,54.371c0,29.981,24.391,54.372,54.371,54.372
	c24.875,0,45.888-16.798,52.327-39.642v-29.459C225.123,301.41,204.111,284.612,179.235,284.612z"/>
<path style="fill:#92E0C0;" d="M120.7,338.984c0-39.935,29.97-72.981,68.595-77.886c-3.295-0.423-6.65-0.651-10.059-0.651
	c-43.305,0-78.537,35.231-78.537,78.537s35.232,78.537,78.537,78.537c3.408,0,6.764-0.228,10.059-0.651
	C150.67,411.965,120.7,378.92,120.7,338.984z"/>
<path style="fill:#5FA77E;" d="M144.865,338.984c0-26.568,19.158-48.73,44.382-53.436c-3.247-0.607-6.59-0.936-10.012-0.936
	c-29.981,0-54.371,24.391-54.371,54.371c0,29.981,24.391,54.372,54.371,54.372c3.42,0,6.764-0.328,10.012-0.936
	C164.023,387.714,144.865,365.551,144.865,338.984z"/>
<path style="fill:#E4EAF8;" d="M259.414,324.255h-30.126c-5.3,0-9.636,4.336-9.636,9.636v10.187c0,5.299,4.336,9.636,9.636,9.636
	h30.126c5.3,0,9.636-4.336,9.636-9.636V333.89C269.05,328.591,264.714,324.255,259.414,324.255z"/>
<path style="fill:#C2C7D0;" d="M259.414,336.712h-30.126c-4.1,0-7.613-2.6-8.999-6.229c-0.405,1.062-0.637,2.207-0.637,3.407v10.187
	c0,5.299,4.336,9.636,9.636,9.636h30.126c5.3,0,9.636-4.336,9.636-9.636V333.89c0-1.2-0.232-2.345-0.637-3.407
	C267.028,334.112,263.514,336.712,259.414,336.712z"/>
<g>
	<path style="fill:#474D54;" d="M179.276,425.022c39.236,0,73.29-26.618,83.159-64.085c8.03-1.417,14.156-8.43,14.156-16.86V333.89
		c0-8.426-6.117-15.434-14.14-16.857c-8.08-30.67-32.54-54.634-63.752-61.869c-4.031-0.936-8.064,1.579-9.001,5.613
		c-0.935,4.035,1.578,8.064,5.613,9.001c24.359,5.644,43.73,23.635,51.413,46.975h-17.397c-9.449,0-17.136,7.688-17.136,17.137
		v10.188c0,9.449,7.687,17.137,17.136,17.137h17.405c-9.462,28.758-36.511,48.807-67.457,48.807
		c-39.169,0-71.036-31.867-71.036-71.037c0-32.907,23.304-62.045,55.412-69.282c4.041-0.911,6.578-4.925,5.667-8.967
		c-0.911-4.04-4.917-6.575-8.967-5.667c-18.739,4.224-35.765,14.821-47.941,29.84c-12.365,15.251-19.174,34.455-19.174,54.076
		C93.238,386.424,131.834,425.022,179.276,425.022z M227.193,344.078V333.89c0-1.157,0.978-2.136,2.135-2.136h30.126
		c0.007,0,0,0,0.007,0s-0.014,0-0.007,0l0,0c1.157,0,2.136,0.979,2.136,2.136v10.188c0,1.157-0.979,2.136-2.136,2.136h-30.126
		C228.17,346.213,227.193,345.235,227.193,344.078z"/>
	<path style="fill:#474D54;" d="M458.755,13.18C454.996,5.388,447.016,0,437.801,0H437.8H318.629h-75.877
		c-12.82,0-23.25,10.431-23.25,23.251l0,0v118.806H72.948c-12.131,0-21.999,9.869-21.999,21.999l0,0l0,0v310.524
		c0,9.611,6.197,17.796,14.804,20.784v9.135c0,4.143,3.357,7.5,7.5,7.5s7.5-3.357,7.5-7.5v-7.919h160.805v7.919
		c0,4.143,3.357,7.5,7.5,7.5c4.143,0,7.5-3.357,7.5-7.5v-7.919h21.238v7.919c0,4.143,3.357,7.5,7.5,7.5s7.5-3.357,7.5-7.5v-7.919
		h131.196v7.919c0,4.143,3.357,7.5,7.5,7.5c4.143,0,7.5-3.357,7.5-7.5v-7.949c12.268-0.624,22.056-10.801,22.056-23.22v-87.144
		c0-4.143-3.357-7.5-7.5-7.5s-7.5,3.357-7.5,7.5v87.144c0,4.549-3.7,8.25-8.249,8.25h-131.34c0.017-0.051,0.028-0.104,0.045-0.154
		c0.158-0.481,0.302-0.967,0.427-1.461c0.018-0.071,0.032-0.143,0.049-0.214c0.112-0.462,0.208-0.93,0.29-1.403
		c0.015-0.087,0.033-0.173,0.047-0.26c0.082-0.51,0.144-1.026,0.191-1.547c0.01-0.11,0.017-0.221,0.025-0.331
		c0.04-0.538,0.067-1.079,0.067-1.627V255.789h138.448v95.394c0,4.143,3.357,7.5,7.5,7.5s7.5-3.357,7.5-7.5V248.289V23.251
		C461.051,19.645,460.226,16.229,458.755,13.18z M234.503,23.251c0-4.549,3.7-8.25,8.249-8.25h68.19
		c-1.363,10.099-10.04,17.91-20.506,17.91h-55.933V23.251z M65.949,164.057c0-3.858,3.14-6.998,6.998-6.998h212.655l0,0
		c3.858,0,6.998,3.14,6.998,6.998l0,0l0,0l0,0v310.524c0,3.858-3.14,6.998-6.998,6.998H72.948c-3.858,0-6.998-3.14-6.998-6.998
		V164.057L65.949,164.057L65.949,164.057z M307.602,240.789L307.602,240.789v-76.733l0,0c0-12.131-9.869-21.999-21.999-21.999h-51.1
		V47.911h55.933c18.744,0,34.149-14.526,35.575-32.911h111.79c4.265,0,7.784,3.253,8.207,7.408c0.028,0.277,0.043,0.558,0.043,0.842
		v217.537L307.602,240.789L307.602,240.789z"/>
</g>
<g>
</g>
<g>
</g>
<g>
</g>
<g>
</g>
<g>
</g>
<g>
</g>
<g>
</g>
<g>
</g>
<g>
</g>
<g>
</g>
<g>
</g>
<g>
</g>
<g>
</g>
<g>
</g>
<g>
</g>
</svg>
