<svg id="Capa_1" enable-background="new 0 0 511.078 511.078" height="512" viewBox="0 0 511.078 511.078" width="512" xmlns="http://www.w3.org/2000/svg"><g><g><path d="m157.889 22.437 7.814 11.009v125.206l-7.814 26.599 74.677-46.056v-116.758z" fill="#baafb9"/><path d="m445.736 415.449h-282.649v-243.646l141.325-94.74 141.324 98.754z" fill="#ee6161"/><path d="m237.691 170.715 65.692-44.305c2.086-1.407 4.817-1.407 6.902 0l135.451 91.353v-41.945l-122.351-85.497-18.974-13.258-141.324 94.74v243.646h48.927 233.722v-12.654-57.378l-45.016 23.193c-2.463 1.269-5.474.546-7.109-1.691-2.034-2.782-4.342-5.395-6.91-7.803-10.464-9.817-24.452-14.997-38.8-14.997h-66.285c-1.72 0-3.358-.777-4.408-2.139-6.365-8.25-14.217-15.302-23.203-20.778-7.974-4.851-16.647-8.333-25.667-10.356-4.483-1.006-7.624-5.056-7.624-9.651v-98.555c0-12.802 6.363-24.767 16.977-31.925z" fill="#e94444"/><path d="m356.426 322.716c0-27.389-22.203-49.591-49.591-49.591-27.389 0-49.592 22.203-49.592 49.591v77.206h99.183z" fill="#f9f7f8"/><path d="m356.426 344.744c-2.811-.409-5.66-.625-8.525-.625h-66.285c-1.72 0-3.357-.777-4.408-2.139-5.588-7.243-12.323-13.561-19.965-18.702v76.644h99.183z" fill="#e5e1e5"/><path d="m49.72 440.491c36.98.805 121.969 3.261 121.969 3.261l85.554 42.15 56.348 7.438 48.597-23.802 98.577-68.062 40.387-35.946c-.377-.857-.806-1.7-1.302-2.522-5.95-9.86-18.53-13.43-28.77-8.15l-85.92 44.266c-.425.219-.921-.085-.935-.563-.548-19.12-16.212-34.443-35.465-34.443h-81.07c-5.61-10.86-14.02-19.7-24.08-25.83-10.06-6.12-21.77-9.53-33.99-9.53h-20.61c-16.12 0-31.67 5.95-43.66 16.72l-11.16 10.01h-23.52-77.8v59.96h16.85z" fill="#fed2a4"/><path d="m32.87 387.505h16.85v27.944h-16.85z" fill="#ffbd86"/><path d="m499.85 363.009c-.574-.951-1.206-1.839-1.895-2.67-1.234 1.484-2.698 2.845-4.355 3.996l-130.83 90.93c-34.13 23.72-78.48 26.96-115.71 8.46l-69.325-34.456c-1.831-.91-3.849-1.384-5.894-1.384h-24.012c-9.477 0-17.16-7.683-17.16-17.16v-55.236h-20-77.8v59.96h16.85v12.436 12.607 15.338h60.95 64.28l72.11 35.84c37.23 18.5 81.58 15.26 115.71-8.46l130.83-90.93c6.09-4.23 9.4-11.04 9.4-17.99.001-3.851-1.019-7.751-3.149-11.281z" fill="#ffbd86"/><g id="XMLID_143_"><g><path d="m88.44 328.989h-72.187c-4.503 0-8.153 3.65-8.153 8.153v34.957l29.579 19.37h59.886l13.104-19.37v-20.88c.001-12.277-9.951-22.23-22.229-22.23z" fill="#9b8e99"/><path d="m27.29 475.841c-.086 0 68.784-1.935 68.784-1.935l10.833-14.4 3.763-43.169v-44.239h-102.57v58.306l5.95 40.407c0 .001 13.326 5.03 13.24 5.03z" fill="#aa9ea9"/><path d="m88.45 438.558h-72.197c-4.503 0-8.153-3.65-8.153-8.153v42.401c0 4.503 3.65 8.153 8.153 8.153h72.197c12.272 0 22.22-9.948 22.22-22.22v-42.401c0 12.271-9.948 22.22-22.22 22.22z" fill="#9b8e99"/></g></g><circle cx="45.266" cy="430.757" fill="#d7d0d6" r="16.919"/><g><path d="m199.904 66.596h32.661v-44.159h-74.677v162.814l23.785-14.669 50.891-31.387v-56.693l-40.777 27.502c-2.221 1.498-5.213-.093-5.213-2.772v-27.307c.001-7.362 5.969-13.329 13.33-13.329z" fill="#aa9ea9"/><path d="m468.083 208.71-158.827-107.118c-1.464-.987-3.381-.987-4.845 0l-158.825 107.118c-1.984 1.338-4.676.814-6.014-1.169l-15.284-22.663c-1.338-1.984-.814-4.676 1.169-6.014l171.313-115.541c6.082-4.103 14.047-4.103 20.129 0l171.314 115.541c1.984 1.338 2.507 4.03 1.169 6.014l-15.284 22.663c-1.339 1.984-4.031 2.507-6.015 1.169z" fill="#baafb9"/></g><path d="m268.95 233.088h-28.18c-5.273 0-9.547-4.274-9.547-9.547v-28.18c0-5.273 4.274-9.547 9.547-9.547h28.18c5.273 0 9.547 4.274 9.547 9.547v28.18c0 5.273-4.274 9.547-9.547 9.547z" fill="#a6e7f0"/><path d="m344.719 233.088h28.18c5.273 0 9.547-4.274 9.547-9.547v-28.18c0-5.273-4.274-9.547-9.547-9.547h-28.18c-5.273 0-9.547 4.274-9.547 9.547v28.18c0 5.273 4.274 9.547 9.547 9.547z" fill="#a6e7f0"/><path d="m164.86 9.542-13.167 3s-1.667 25.5-1.667 26.667 6.333 2.5 6.333 2.5l82.167-1.5 5.906-8.602v-12.239c0-6.555-5.313-11.868-11.868-11.868h-62.789z" fill="#baafb9"/><path d="m181.645 31.607c-6.554 0-11.868-5.313-11.868-11.868v-12.239h-11.888c-6.555 0-11.868 5.313-11.868 11.868v15.359c0 6.555 5.313 11.868 11.868 11.868h74.677c6.554 0 11.868-5.313 11.868-11.868v-3.121h-62.789z" fill="#aa9ea9"/></g><g><path d="m506.27 359.137c-7.959-13.196-24.926-18.004-38.62-10.947l-14.413 7.425v-55.774c0-4.142-3.357-7.5-7.5-7.5s-7.5 3.358-7.5 7.5v63.501l-48.067 24.763c-3.676-13.228-13.526-23.906-26.243-28.719v-36.671c0-31.48-25.61-57.091-57.091-57.091s-57.092 25.611-57.092 57.091v10.535c-11.669-7.696-25.533-11.994-40.126-11.994h-20.608c-6.274 0-12.456.822-18.423 2.38v-122.741l136.247-91.89 131.402 88.622v70.251c0 4.142 3.357 7.5 7.5 7.5s7.5-3.358 7.5-7.5v-60.135l10.652 7.184c2.621 1.768 5.775 2.408 8.875 1.805 3.104-.603 5.786-2.379 7.551-4.999l15.285-22.664c3.647-5.409 2.215-12.777-3.194-16.425l-171.312-115.539c-8.663-5.842-19.855-5.842-28.517 0l-52.511 35.415v-39.937c6.966-2.937 11.868-9.834 11.868-17.855v-15.36c.001-10.68-8.688-19.368-19.368-19.368h-74.677c-10.679 0-19.367 8.688-19.367 19.368v15.359c0 8.022 4.903 14.919 11.868 17.855v22.985c0 4.142 3.357 7.5 7.5 7.5s7.5-3.358 7.5-7.5v-21.471h59.676v48.542l-59.676 40.248v-35.356c0-4.142-3.357-7.5-7.5-7.5s-7.5 3.358-7.5 7.5v45.471l-29.127 19.644c-5.408 3.648-6.841 11.017-3.193 16.426l15.283 22.661c1.767 2.622 4.449 4.398 7.553 5.001.761.148 1.524.221 2.283.221 2.333 0 4.614-.692 6.591-2.026l5.808-3.917v118.377c-5.461 2.822-10.594 6.33-15.249 10.508l-9.02 8.096h-13.322c-1.614-14.879-14.247-26.5-29.548-26.5h-80.345c-4.143 0-7.5 3.358-7.5 7.5s3.357 7.5 7.5 7.5h80.345c8.12 0 14.727 6.606 14.727 14.727v13.383h-95.072c-4.143 0-7.5 3.358-7.5 7.5s3.357 7.5 7.5 7.5h95.071v79.132c0 8.12-6.606 14.727-14.727 14.727h-80.344c-4.143 0-7.5 3.358-7.5 7.5s3.357 7.5 7.5 7.5h80.345c14.83 0 27.156-10.916 29.371-25.135h55.372l17.824 8.86c1.072.533 2.211.785 3.332.785 2.758 0 5.411-1.526 6.722-4.163 1.844-3.709.332-8.211-3.378-10.055l-19.401-9.644c-1.037-.516-2.18-.784-3.338-.784h-56.776v-85.333h16.016c1.85 0 3.634-.683 5.01-1.919l11.157-10.015c4.656-4.179 9.904-7.535 15.532-9.989.063-.025.125-.05.187-.077 7.178-3.099 14.967-4.737 22.933-4.737h20.607c21.732 0 41.432 11.994 51.408 31.301 1.288 2.492 3.858 4.057 6.663 4.057h81.072c15.429 0 27.98 12.552 27.98 27.98v3.941c0 2.434-1.979 4.413-4.413 4.413h-124.87c-4.143 0-7.5 3.358-7.5 7.5s3.357 7.5 7.5 7.5h124.87c10.485 0 19.034-8.361 19.38-18.764l82.81-42.661c6.705-3.455 15.01-1.101 18.906 5.359 3.905 6.475 2.101 14.927-4.108 19.242l-130.824 90.92c-31.894 22.165-73.312 25.195-108.09 7.908l-24.034-11.946c-3.711-1.844-8.211-.331-10.054 3.378-1.844 3.709-.332 8.211 3.378 10.055l24.034 11.946c17.097 8.498 35.597 12.692 54.03 12.692 24.352 0 48.585-7.322 69.296-21.715l130.824-90.92c12.685-8.813 16.37-26.078 8.394-39.304zm-352.749-339.769c0-2.409 1.959-4.368 4.367-4.368h74.677c2.408 0 4.368 1.959 4.368 4.368v15.359c0 2.409-1.96 4.368-4.368 4.368h-74.677c-2.408 0-4.367-1.959-4.367-4.368zm-9.502 181.353-11.742-17.411 168.688-113.77c3.566-2.405 8.175-2.405 11.741 0l168.688 113.77-11.742 17.411-156.203-105.347c-4.018-2.711-9.213-2.711-13.23 0l-141.304 95.3c-.014.009-.028.018-.041.028zm128.073 155.894c-2.175-3.63-4.64-7.023-7.349-10.165v-23.734c0-23.209 18.882-42.091 42.092-42.091 23.209 0 42.091 18.882 42.091 42.091v33.904c-.055 0-.11-.004-.165-.004h-76.669z"/><path d="m69.686 430.757c0-13.465-10.954-24.419-24.419-24.419s-24.42 10.955-24.42 24.419 10.955 24.419 24.42 24.419 24.419-10.954 24.419-24.419zm-33.839 0c0-5.194 4.226-9.419 9.42-9.419 5.193 0 9.419 4.226 9.419 9.419s-4.226 9.419-9.419 9.419c-5.195 0-9.42-4.225-9.42-9.419z"/><path d="m240.77 182.314c-9.399 0-17.047 7.647-17.047 17.047v28.179c0 9.4 7.647 17.047 17.047 17.047h28.18c9.399 0 17.047-7.647 17.047-17.047v-28.179c0-9.4-7.647-17.047-17.047-17.047zm30.227 17.048v28.179c0 1.129-.918 2.047-2.047 2.047h-28.18c-1.129 0-2.047-.918-2.047-2.047v-28.179c0-1.129.918-2.047 2.047-2.047h28.18c1.129-.001 2.047.918 2.047 2.047z"/><path d="m344.719 182.314c-9.399 0-17.047 7.647-17.047 17.047v28.179c0 9.4 7.647 17.047 17.047 17.047h28.18c9.399 0 17.047-7.647 17.047-17.047v-28.179c0-9.4-7.647-17.047-17.047-17.047zm30.226 17.048v28.179c0 1.129-.918 2.047-2.047 2.047h-28.18c-1.129 0-2.047-.918-2.047-2.047v-28.179c0-1.129.918-2.047 2.047-2.047h28.18c1.129-.001 2.047.918 2.047 2.047z"/></g></g></svg>