<svg id="Capa_1" enable-background="new 0 0 512 512" height="512" viewBox="0 0 512 512" width="512" xmlns="http://www.w3.org/2000/svg" xmlns:xlink="http://www.w3.org/1999/xlink"><linearGradient id="SVGID_1_" gradientUnits="userSpaceOnUse" x1="256" x2="256" y1="-3.777" y2="630.805"><stop offset=".0023" stop-color="#ffc599"/><stop offset=".992" stop-color="#ffe8dc" stop-opacity="0"/></linearGradient><path d="m512 192.135c0-77.209-114.615-139.799-256-139.799s-256 62.59-256 139.799c0 12.48 2.999 24.577 8.62 36.089 10.007 20.491 12.502 43.828 7.537 66.086-2.036 9.127-3.179 18.59-3.333 28.294-1.235 77.812 61.961 142.061 139.782 142.06 58.443 0 108.503-35.865 129.385-86.785 11.468-27.964 35.565-48.919 65.155-55.077 96.38-20.057 164.854-70.992 164.854-130.667z" fill="url(#SVGID_1_)"/><path d="m468.802 458.261-100.228-100.229c-3.586-3.586-9.4-3.586-12.986 0l-2.591 2.591-34.506-34.506c12.086-14.955 19.746-32.298 22.986-50.283h19.848c3.276 0 5.933-2.656 5.933-5.933v-101.543c0-5.518 4.473-9.991 9.991-9.991 5.518 0 9.991 4.473 9.991 9.991v101.543c0 3.277 2.656 5.933 5.933 5.933h27.187c3.276 0 5.933-2.656 5.933-5.933v-154.251c0-3.277-2.656-5.933-5.933-5.933h-86.221c-3.276 0-5.933 2.656-5.933 5.933v84.151c-4.771-8.221-10.668-15.966-17.707-23.005-22.306-22.306-51.688-33.216-80.92-32.745v-32.593l16.211 16.211c1.793 1.793 4.7 1.793 6.493 0l28.245-28.245c1.793-1.793 1.793-4.7 0-6.493l-49.605-49.605c-.861-.861-2.029-1.345-3.247-1.345h-23.694c-1.815 0-3.491 1.056-4.195 2.73-4.693 11.162-15.735 19.003-28.607 19.003s-23.914-7.841-28.607-19.003c-.704-1.673-2.38-2.73-4.195-2.73h-23.694c-1.218 0-2.386.484-3.247 1.345l-49.603 49.604c-1.793 1.793-1.793 4.7 0 6.493l28.245 28.245c1.793 1.793 4.7 1.793 6.493 0l16.211-16.211v98.241c0 2.536 2.056 4.591 4.591 4.591h10.148c-13.478 33.69-9.919 72.606 10.679 103.534h-71.098c-3.276 0-5.933 2.656-5.933 5.933v94.306c0 3.276 2.656 5.933 5.933 5.933h27.187c3.276 0 5.933-2.656 5.933-5.933v-41.598c0-5.518 4.473-9.991 9.991-9.991s9.991 4.473 9.991 9.991v41.598c0 3.276 2.656 5.933 5.933 5.933h27.187c3.277 0 5.933-2.656 5.933-5.933v-76.655c40.929 34.607 100.842 35.139 142.352 1.591l34.506 34.506-2.591 2.591c-3.586 3.586-3.586 9.4 0 12.986l100.228 100.229c3.586 3.586 9.4 3.586 12.986 0l22.064-22.064c3.586-3.585 3.586-9.399-.001-12.985z" fill="#00c" opacity=".1"/><path d="m328.206 94.669v154.252c0 3.277 2.656 5.933 5.933 5.933h27.187c3.277 0 5.933-2.656 5.933-5.933v-101.544c0-5.518 4.473-9.991 9.991-9.991 5.518 0 9.991 4.473 9.991 9.991v101.543c0 3.277 2.656 5.933 5.933 5.933h27.187c3.277 0 5.933-2.656 5.933-5.933v-154.251c0-3.277-2.656-5.933-5.933-5.933h-86.221c-3.278 0-5.934 2.657-5.934 5.933z" fill="#9494ff"/><g fill="#d9d9ff"><path d="m426.292 105.548v-10.879c0-3.277-2.656-5.933-5.933-5.933h-86.221c-3.277 0-5.933 2.656-5.933 5.933v10.879z"/><path d="m328.206 237.055v11.865c0 3.277 2.656 5.933 5.933 5.933h27.187c3.277 0 5.933-2.656 5.933-5.933v-11.865z"/><path d="m387.24 237.055v11.865c0 3.277 2.656 5.933 5.933 5.933h27.187c3.277 0 5.933-2.656 5.933-5.933v-11.865z"/></g><path d="m402.784 105.548c.259 10.092 5.721 19.335 14.498 24.395l9.006 5.197v-29.592z" fill="#6c6cff"/><path d="m351.71 105.548c-.259 10.092-5.721 19.335-14.498 24.395l-9.006 5.197v-29.592z" fill="#6c6cff"/><path d="m358.532 107.441h-5.636c-.655 0-1.187-.531-1.187-1.187v-17.518h8.009v17.518c.001.656-.53 1.187-1.186 1.187z" fill="#b3b3ff"/><path d="m401.598 107.441h-5.636c-.655 0-1.187-.531-1.187-1.187v-17.518h8.009v17.518c0 .656-.531 1.187-1.186 1.187z" fill="#b3b3ff"/><path d="m61.17 302.776v94.306c0 3.277 2.656 5.933 5.933 5.933h27.187c3.277 0 5.933-2.656 5.933-5.933v-41.598c0-5.518 4.473-9.991 9.991-9.991 5.518 0 9.991 4.473 9.991 9.991v41.598c0 3.277 2.656 5.933 5.933 5.933h27.187c3.277 0 5.933-2.656 5.933-5.933v-94.306c0-3.277-2.656-5.933-5.933-5.933h-86.222c-3.276.001-5.933 2.657-5.933 5.933z" fill="#ff9494"/><path d="m159.257 313.656v-10.879c0-3.277-2.656-5.933-5.933-5.933h-86.221c-3.277 0-5.933 2.656-5.933 5.933v10.879z" fill="#ffd9d9"/><path d="m61.17 385.217v11.865c0 3.277 2.656 5.933 5.933 5.933h27.187c3.277 0 5.933-2.656 5.933-5.933v-11.865z" fill="#ffd9d9"/><path d="m120.204 385.217v11.865c0 3.277 2.656 5.933 5.933 5.933h27.187c3.277 0 5.933-2.656 5.933-5.933v-11.865z" fill="#ffd9d9"/><path d="m135.749 313.656c.259 10.092 5.721 19.335 14.498 24.395l9.006 5.197v-29.592z" fill="#ff4d4d"/><path d="m84.675 313.656c-.259 10.092-5.721 19.335-14.498 24.395l-9.006 5.197v-29.592z" fill="#ff4d4d"/><path d="m91.497 315.549h-5.636c-.655 0-1.187-.531-1.187-1.187v-17.518h8.009v17.518c.001.655-.531 1.187-1.186 1.187z" fill="#ff9494"/><path d="m134.562 315.549h-5.636c-.655 0-1.187-.531-1.187-1.187v-17.518h8.009v17.518c.001.655-.53 1.187-1.186 1.187z" fill="#ff9494"/><path d="m280.528 78.442-28.246 28.246c-1.793 1.793-4.7 1.793-6.493 0l-16.211-16.211v98.241c0 2.536-2.056 4.591-4.591 4.591h-107.612c-2.536 0-4.591-2.056-4.591-4.591v-98.241l-16.211 16.211c-1.793 1.793-4.7 1.793-6.493 0l-28.246-28.246c-1.793-1.793-1.793-4.7 0-6.493l49.605-49.605c.861-.86 2.029-1.344 3.247-1.344h23.694c1.815 0 3.491 1.056 4.195 2.73 4.693 11.162 15.735 19.003 28.607 19.003s23.914-7.841 28.607-19.003c.704-1.674 2.38-2.73 4.195-2.73h23.694c1.218 0 2.385.484 3.247 1.345l49.605 49.605c1.791 1.792 1.791 4.699-.002 6.492z" fill="#ff4d4d"/><path d="m313.905 294.476h23.875v69.788h-23.875z" style="fill:#4d4dff;stroke:#00c;stroke-width:10;stroke-linecap:round;stroke-linejoin:round;stroke-miterlimit:10" transform="matrix(.707 -.707 .707 .707 -137.462 326.875)"/><path d="m309.61 296.255 18.596 18.596c-2.474 3.071-5.143 6.039-7.993 8.889s-5.818 5.519-8.889 7.993l-18.596-18.596z" fill="#2c27ff"/><circle cx="231.394" cy="234.921" fill="#ff9d33" r="111.872"/><circle cx="231.394" cy="234.921" fill="#d9d9ff" r="86.124"/><path d="m316.764 223.572-96.722 96.712c-9.481-1.239-18.783-4.066-27.495-8.472l115.734-115.734c4.417 8.711 7.245 18.013 8.483 27.494z" fill="#ebebff"/><path d="m303.716 188.134-119.101 119.102c-5.005-3.227-9.741-7.044-14.117-11.42-5.435-5.435-10.001-11.42-13.667-17.774l117.682-117.682c6.354 3.667 12.349 8.232 17.784 13.667 4.376 4.376 8.182 9.112 11.419 14.107z" fill="#ebebff"/><path d="m260.696 153.926v106.403c0 3.167-2.568 5.715-5.725 5.715h-103.905c-11.919-30.832-5.455-67.139 19.422-92.016 24.388-24.389 59.785-31.092 90.208-20.102z" fill="#ff6c6c"/><path d="m468.802 450.266-22.064 22.064c-3.586 3.586-9.4 3.586-12.986 0l-100.228-100.229c-3.586-3.586-3.586-9.4 0-12.986l22.064-22.064c3.586-3.586 9.4-3.586 12.986 0l100.228 100.229c3.586 3.586 3.586 9.4 0 12.986z" fill="#ff9d33"/><path d="m349.89 366.742h49.568v22.917h-49.568z" fill="#ffc599" transform="matrix(.707 -.707 .707 .707 -157.689 375.707)"/><path d="m295.828 170.487c-17.211-17.211-40.094-26.689-64.434-26.689s-47.223 9.479-64.434 26.689-26.689 40.094-26.689 64.434 9.479 47.223 26.689 64.434 40.094 26.689 64.434 26.689 47.223-9.479 64.434-26.689 26.69-40.094 26.69-64.434-9.479-47.223-26.69-64.434zm-7.072 121.797c-15.322 15.322-35.694 23.761-57.363 23.761s-42.041-8.438-57.363-23.761-23.761-35.694-23.761-57.363 8.438-42.041 23.761-57.363 35.694-23.761 57.363-23.761 42.041 8.438 57.363 23.761c15.323 15.322 23.761 35.694 23.761 57.363s-8.438 42.04-23.761 57.363z" fill="#00c"/><path d="m472.338 433.744-76.187-76.187c-1.953-1.952-5.118-1.952-7.071 0-1.953 1.953-1.953 5.119 0 7.071l76.187 76.187c1.631 1.631 1.631 4.284 0 5.915l-22.064 22.063c-1.631 1.631-4.284 1.631-5.915 0l-100.228-100.227c-1.631-1.631-1.631-4.285 0-5.916l22.063-22.064c1.631-1.631 4.284-1.631 5.915 0 1.953 1.952 5.118 1.952 7.071 0 1.953-1.953 1.953-5.119 0-7.071-5.211-5.21-13.499-5.506-19.065-.897l-27.905-27.904c10.146-13.609 16.949-28.94 20.4-44.861h15.785c6.028 0 10.933-4.904 10.933-10.933v-101.543c0-2.752 2.239-4.991 4.991-4.991s4.991 2.239 4.991 4.991v101.543c0 6.028 4.904 10.933 10.933 10.933h27.187c6.028 0 10.933-4.904 10.933-10.933v-154.251c0-6.028-4.905-10.933-10.933-10.933h-86.221c-6.028 0-10.933 4.904-10.933 10.933v67.938c-2.821-3.576-5.873-7.028-9.171-10.327-21.976-21.976-50.598-33.35-79.456-34.13v-15.602l7.675 7.675c3.74 3.739 9.824 3.739 13.564 0l28.246-28.246c3.74-3.74 3.74-9.825 0-13.564l-49.605-49.605c-1.812-1.811-4.22-2.808-6.781-2.808h-23.694c-3.869 0-7.325 2.273-8.804 5.792-4.071 9.684-13.491 15.941-23.998 15.941s-19.926-6.257-23.998-15.941c-1.479-3.519-4.935-5.792-8.804-5.792h-23.694c-2.561 0-4.969.997-6.782 2.809l-49.604 49.605c-3.74 3.74-3.74 9.825 0 13.564l28.246 28.246c3.74 3.739 9.824 3.739 13.564 0l7.675-7.675v86.17c0 5.289 4.303 9.591 9.591 9.591h3.048c-10.077 30.714-7.12 64.808 8.883 93.534h-62.203c-6.028 0-10.933 4.904-10.933 10.933v94.307c0 6.028 4.904 10.933 10.933 10.933h27.188c6.028 0 10.933-4.904 10.933-10.933v-41.598c0-2.752 2.239-4.991 4.991-4.991s4.991 2.239 4.991 4.991v41.598c0 6.028 4.904 10.933 10.933 10.933h27.187c6.028 0 10.933-4.904 10.933-10.933v-42.038c0-2.761-2.239-5-5-5s-5 2.239-5 5v42.038c0 .514-.418.933-.933.933h-27.187c-.514 0-.933-.418-.933-.933v-41.598c0-8.266-6.725-14.991-14.991-14.991s-14.991 6.725-14.991 14.991v41.598c0 .514-.418.933-.933.933h-27.188c-.514 0-.933-.418-.933-.933v-94.307c0-.514.418-.933.933-.933h68.465c3.863 5.525 8.256 10.789 13.185 15.718 22.785 22.784 52.713 34.176 82.641 34.176 24.586 0 49.168-7.694 69.794-23.07l27.905 27.905c-4.609 5.566-4.313 13.854.897 19.065l100.228 100.228c2.765 2.765 6.396 4.147 10.029 4.147 3.631 0 7.264-1.383 10.029-4.147l22.064-22.064c5.528-5.531 5.528-14.528-.002-20.058zm-139.132-339.075c0-.514.418-.933.933-.933h86.221c.515 0 .933.418.933.933v154.252c0 .514-.418.933-.933.933h-27.187c-.514 0-.933-.418-.933-.933v-101.544c0-8.266-6.725-14.991-14.991-14.991s-14.991 6.725-14.991 14.991v101.543c0 .514-.418.933-.933.933h-14.072c3.149-24.652-1.532-50.119-14.048-72.335v-82.849zm-215.422 93.641v-97.833c0-2.022-1.218-3.846-3.086-4.62-1.868-.773-4.02-.346-5.449 1.084l-15.921 15.922-27.669-27.667 49.196-49.196h23.251c5.71 13.214 18.653 21.733 33.075 21.733s27.365-8.519 33.075-21.733h23.252l49.195 49.196-27.667 27.667-15.921-15.922c-1.43-1.43-3.58-1.857-5.449-1.084-1.868.774-3.086 2.597-3.086 4.62v27.831c-27.617 1.599-54.772 12.917-75.827 33.971-10.684 10.684-18.863 22.94-24.537 36.03h-6.432zm38.04 122.181c-41.669-41.669-41.669-109.47 0-151.14 20.837-20.837 48.199-31.252 75.57-31.252 27.364 0 54.738 10.42 75.57 31.252 41.669 41.669 41.669 109.47 0 151.14-41.67 41.669-109.47 41.669-151.14 0zm158.211 7.071c1.647-1.647 3.228-3.336 4.756-5.055l27.136 27.135-9.811 9.811-27.135-27.135c1.718-1.528 3.407-3.109 5.054-4.756z" fill="#00c"/><path d="m231.356 245.012h-29.973c-2.759 0-4.995-2.237-4.995-4.995v-11.323c0-2.759 2.237-4.995 4.995-4.995h29.973c2.759 0 4.995 2.237 4.995 4.995v11.323c0 2.759-2.236 4.995-4.995 4.995z" fill="#4d4dff"/><path d="m260.696 243.664v16.665c0 3.167-2.568 5.715-5.725 5.715h-16.655z" fill="#ff9494"/><path d="m260.696 174.177v56.978l-34.888 34.888h-56.978z" fill="#ff9494"/><path d="m236.348 228.697v11.32c0 2.757-2.238 4.995-4.995 4.995h-29.973c-2.757 0-4.995-2.238-4.995-4.995v-1.529l14.786-14.786h20.182c2.757 0 4.995 2.238 4.995 4.995z" fill="#6c6cff"/><path d="m426.834 331.04c-1.28 0-2.559-.488-3.536-1.464-1.953-1.953-1.953-5.119 0-7.071l9.991-9.991c1.952-1.952 5.118-1.952 7.071 0 1.953 1.953 1.953 5.119 0 7.071l-9.991 9.991c-.975.976-2.255 1.464-3.535 1.464z" fill="#ff9d33"/><path d="m216.37 412.787c-1.28 0-2.559-.488-3.536-1.464-1.953-1.953-1.953-5.119 0-7.071l9.991-9.991c1.953-1.952 5.118-1.952 7.071 0 1.953 1.953 1.953 5.119 0 7.071l-9.991 9.991c-.976.975-2.256 1.464-3.535 1.464z" fill="#ff9d33"/><path d="m75.701 158.56c-1.28 0-2.559-.488-3.536-1.464-1.953-1.953-1.953-5.119 0-7.071l9.991-9.991c1.954-1.952 5.119-1.951 7.071 0 1.953 1.953 1.953 5.119 0 7.071l-9.991 9.991c-.976.976-2.256 1.464-3.535 1.464z" fill="#6c6cff"/><path d="m60.49 196.976c-1.28 0-2.559-.488-3.536-1.464l-6.455-6.456-6.456 6.456c-1.953 1.952-5.118 1.952-7.071 0-1.953-1.953-1.953-5.119 0-7.071l9.991-9.991c.938-.938 2.209-1.464 3.536-1.464 1.326 0 2.598.527 3.536 1.464l9.991 9.991c1.953 1.953 1.953 5.119 0 7.071-.977.976-2.257 1.464-3.536 1.464z" fill="#ff6c6c"/><path d="m349.949 59.932c-1.28 0-2.559-.488-3.536-1.464l-6.455-6.456-6.456 6.456c-1.953 1.953-5.118 1.952-7.071 0-1.953-1.953-1.953-5.119 0-7.071l9.991-9.991c1.954-1.952 5.119-1.951 7.071 0l9.991 9.991c1.953 1.953 1.953 5.119 0 7.071-.976.975-2.255 1.464-3.535 1.464z" fill="#ff6c6c"/></svg>