<svg height="512pt" viewBox="0 -20 512.00282 512" width="512pt" xmlns="http://www.w3.org/2000/svg"><path d="m127.839844 39.96875h48.160156v64h-48.160156zm0 0" fill="#ccd1d9"/><path d="m259.28125 36.6875c6.230469 6.242188 6.230469 16.402344 0 22.640625-3.128906 3.121094-7.203125 4.640625-11.28125 4.640625s-8.230469-1.519531-11.359375-4.640625l-19.28125-19.359375h-129.359375c-8.871094 0-16-7.121094-16-16 0-8.800781 7.128906-16 16-16h136c1.039062 0 2.078125.160156 3.128906.320312.480469.160157.871094.320313 1.359375.480469.550781.167969 1.121094.238281 1.589844.488281.5625.238282 1.050781.480469 1.601563.800782.398437.238281.808593.398437 1.191406.640625.890625.636719 1.6875 1.277343 2.410156 2zm0 0" fill="#e6e9ed"/><path d="m328 104.050781h176v23.917969h-176zm0 0" fill="#37bc9b"/><path d="m487.992188 104.050781h16.007812v23.917969h-16.007812zm0 0" fill="#31af8b"/><path d="m504 127.96875-24 256.082031h-128l-24-256.082031zm-48 128.082031c0-22.082031-17.921875-40-40-40-22.160156 0-40 17.917969-40 40 0 22.078125 17.839844 40 40 40 22.078125 0 40-17.921875 40-40zm0 0" fill="#48cfad"/><path d="m487.992188 127.96875-24 256.082031h16.007812l24-256.082031zm0 0" fill="#37bc9b"/><path d="m352 384.050781v48c0 17.679688 14.320312 32 32 32h64c17.679688 0 32-14.320312 32-32v-48zm0 0" fill="#e6e9ed"/><path d="m463.992188 384.050781v48c0 17.679688-14.320313 32-32 32h16.007812c17.679688 0 32-14.320312 32-32v-48zm0 0" fill="#ccd1d9"/><path d="m416 240.050781c8.800781 0 16 7.125 16 16 0 8.804688-7.199219 16-16 16-8.878906 0-16-7.195312-16-16 0-8.875 7.121094-16 16-16zm0 0" fill="#48cfad"/><path d="m432 256.050781c0-8.875-7.199219-16-16-16-8.878906 0-16 7.125-16 16 0 8.804688 7.121094 16 16 16 8.800781 0 16-7.203125 16-16zm-16-40c22.078125 0 40 17.917969 40 40 0 22.078125-17.921875 40-40 40-22.160156 0-40-17.921875-40-40 0-22.082031 17.839844-40 40-40zm0 0" fill="#e6e9ed"/><path d="m296 159.96875v272.082031c0 17.597657-14.398438 32-32 32h-224c-17.601562 0-32-14.402343-32-32v-272.082031c0-17.597656 14.398438-32 32-32h224c17.601562 0 32 14.402344 32 32zm-72 104c0-39.757812-32.230469-72-72-72s-72 32.242188-72 72c0 39.761719 32.230469 72 72 72s72-32.238281 72-72zm0 0" fill="#48cfad"/><path d="m264 127.96875h-24.015625c17.609375 0 32 14.402344 32 32v272.082031c0 17.597657-14.390625 32-32 32h24.015625c17.601562 0 32-14.402343 32-32v-272.082031c0-17.597656-14.398438-32-32-32zm0 0" fill="#37bc9b"/><path d="m224 127.96875h-144v-24h144zm0 0" fill="#e6e9ed"/><path d="m152 191.96875c39.769531 0 72 32.242188 72 72 0 39.761719-32.230469 72-72 72s-72-32.238281-72-72c0-39.757812 32.230469-72 72-72zm40 72c0-22.078125-18-40-40-40-22.078125 0-40 17.921875-40 40 0 22.082031 17.921875 40 40 40 22 0 40-17.917969 40-40zm0 0" fill="#e6e9ed"/><path d="m152 223.96875c22 0 40 17.921875 40 40 0 22.082031-18 40-40 40-22.078125 0-40-17.917969-40-40 0-22.078125 17.921875-40 40-40zm0 0" fill="#48cfad"/><path d="m264.023438 472.015625h-224.023438c-22.054688 0-40-17.941406-40-40v-272.070313c0-22.054687 17.945312-40 40-40h224.023438c22.054687 0 40 17.945313 40 40v272.070313c0 22.058594-17.945313 40-40 40zm-224.023438-336.070313c-13.230469 0-24 10.769532-24 24v272.070313c0 13.234375 10.769531 24 24 24h224.023438c13.234374 0 24-10.765625 24-24v-272.070313c0-13.230468-10.765626-24-24-24zm0 0"/><path d="m80.023438 135.945312c-4.421876 0-8-3.574218-8-8v-23.953124c0-4.421876 3.578124-8 8-8 4.425781 0 8 3.578124 8 8v23.953124c0 4.425782-3.574219 8-8 8zm0 0"/><path d="m224 111.992188h-143.976562c-4.421876 0-8-3.574219-8-8 0-4.421876 3.578124-8 8-8h143.976562c4.425781 0 8 3.578124 8 8 0 4.425781-3.574219 8-8 8zm0 0"/><path d="m224 135.945312c-4.425781 0-8-3.574218-8-8v-23.953124c0-4.421876 3.574219-8 8-8s8 3.578124 8 8v23.953124c0 4.425782-3.574219 8-8 8zm0 0"/><path d="m127.878906 111.992188c-4.421875 0-8-3.574219-8-8v-64c0-4.421876 3.578125-8 8-8 4.425782 0 8 3.578124 8 8v64c0 4.425781-3.574218 8-8 8zm0 0"/><path d="m176.007812 111.992188c-4.421874 0-8-3.574219-8-8v-64c0-4.421876 3.578126-8 8-8 4.425782 0 8 3.578124 8 8v64c0 4.425781-3.574218 8-8 8zm0 0"/><path d="m248 71.992188c-6.40625 0-12.441406-2.503907-16.96875-7.03125l-16.960938-16.960938h-126.070312c-13.230469 0-24-10.765625-24-24 0-13.230469 10.769531-24 24-24h136.007812c1.558594 0 3.144532.160156 4.679688.464844.738281.160156 1.328125.335937 1.914062.527344 1.167969.335937 1.894532.554687 2.605469.847656.730469.304687 1.441407.691406 2.152344 1.089844.921875.480468 1.503906.800781 2.046875 1.167968 1.21875.816406 2.464844 1.824219 3.578125 2.9375l23.984375 23.980469c9.359375 9.363281 9.359375 24.578125 0 33.9375-4.527344 4.542969-10.5625 7.039063-16.96875 7.039063zm-160-55.992188c-4.414062 0-8 3.585938-8 8 0 4.417969 3.585938 8 8 8h129.382812c2.128907 0 4.160157.839844 5.65625 2.34375l19.304688 19.304688c3.03125 3.015624 8.28125 3.015624 11.3125 0 3.121094-3.117188 3.121094-8.191407 0-11.3125l-23.984375-23.984376c-.367187-.367187-.785156-.703124-1.214844-.988281-.042969-.019531-.976562-.507812-1.015625-.523437-.042968-.015625-1.210937-.445313-1.25-.460938l1.367188-7.953125-2.222656 7.679688c-.257813-.039063-.792969-.105469-1.320313-.105469zm0 0"/><path d="m447.984375 472.015625c-4.425781 0-8-3.574219-8-8 0-4.421875 3.574219-8 8-8 13.230469 0 24-10.765625 24-24 0-4.421875 3.574219-8 8-8 4.421875 0 8 3.578125 8 8 0 22.058594-17.945313 40-40 40zm0 0"/><path d="m384.023438 472.015625c-22.054688 0-40-17.941406-40-40 0-4.421875 3.578124-8 8-8 4.425781 0 8 3.578125 8 8 0 13.234375 10.769531 24 24 24 4.425781 0 8 3.578125 8 8 0 4.425781-3.574219 8-8 8zm0 0"/><path d="m447.984375 472.015625h-63.960937c-4.421876 0-8-3.574219-8-8 0-4.421875 3.578124-8 8-8h63.960937c4.421875 0 8 3.578125 8 8 0 4.425781-3.578125 8-8 8zm0 0"/><path d="m479.984375 440.015625c-4.425781 0-8-3.574219-8-8v-48c0-4.421875 3.574219-8 8-8 4.421875 0 8 3.578125 8 8v48c0 4.425781-3.578125 8-8 8zm0 0"/><path d="m479.984375 392.015625h-127.96875c-4.421875 0-8-3.574219-8-8 0-4.421875 3.578125-8 8-8h127.96875c4.421875 0 8 3.578125 8 8 0 4.425781-3.578125 8-8 8zm0 0"/><path d="m352.015625 440.015625c-4.421875 0-8-3.574219-8-8v-48c0-4.421875 3.578125-8 8-8 4.425781 0 8 3.578125 8 8v48c0 4.425781-3.574219 8-8 8zm0 0"/><path d="m479.984375 424.027344h-127.960937c-4.421876 0-8-3.578125-8-8 0-4.425782 3.578124-8 8-8h127.960937c4.421875 0 8 3.574218 8 8 0 4.421875-3.578125 8-8 8zm0 0"/><path d="m479.992188 392.015625c-.25 0-.503907-.007813-.761719-.03125-4.398438-.414063-7.621094-4.320313-7.214844-8.71875l24.015625-256.0625c.417969-4.402344 4.25-7.648437 8.722656-7.21875 4.398438.417969 7.621094 4.320313 7.214844 8.722656l-24.015625 256.0625c-.394531 4.136719-3.875 7.246094-7.960937 7.246094zm0 0"/><path d="m352 392.015625c-4.089844 0-7.566406-3.109375-7.960938-7.246094l-24.015624-256.0625c-.40625-4.402343 2.824218-8.304687 7.214843-8.722656 4.488281-.421875 8.304688 2.824219 8.722657 7.21875l24.015624 256.0625c.40625 4.398437-2.824218 8.304687-7.214843 8.71875-.257813.023437-.515625.03125-.761719.03125zm0 0"/><path d="m504 135.953125h-176.007812c-4.425782 0-8-3.574219-8-8v-23.9375c0-4.421875 3.574218-8 8-8h176.007812c4.425781 0 8 3.578125 8 8v23.9375c0 4.425781-3.574219 8-8 8zm-168.007812-16h160.007812v-7.9375h-160.007812zm0 0"/><path d="m152.015625 343.984375c-44.113281 0-80-35.886719-80-80 0-44.109375 35.886719-80 80-80s80 35.890625 80 80c0 44.113281-35.886719 80-80 80zm0-144c-35.289063 0-64 28.714844-64 64 0 35.289063 28.710937 64 64 64s64-28.710937 64-64c0-35.285156-28.710937-64-64-64zm0 0"/><path d="m152.015625 311.984375c-26.472656 0-48-21.527344-48-48s21.527344-48 48-48 48 21.527344 48 48-21.527344 48-48 48zm0-80c-17.648437 0-32 14.351563-32 32s14.351563 32 32 32 32-14.351563 32-32-14.351563-32-32-32zm0 0"/><path d="m224.015625 376.089844h-144c-4.421875 0-8-3.578125-8-8 0-4.425782 3.578125-8 8-8h144c4.425781 0 8 3.574218 8 8 0 4.421875-3.574219 8-8 8zm0 0"/><path d="m192 400.113281h-79.96875c-4.421875 0-8-3.574219-8-8s3.578125-8 8-8h79.96875c4.425781 0 8 3.574219 8 8s-3.574219 8-8 8zm0 0"/><path d="m415.992188 304.035156c-26.472657 0-48-21.53125-48-48 0-26.472656 21.527343-48 48-48 26.472656 0 48 21.527344 48 48 0 26.46875-21.527344 48-48 48zm0-80c-17.648438 0-32 14.351563-32 32 0 17.644532 14.351562 32 32 32 17.648437 0 32-14.355468 32-32 0-17.648437-14.351563-32-32-32zm0 0"/><path d="m415.992188 280.035156c-13.230469 0-24-10.769531-24-24 0-13.234375 10.769531-24 24-24 13.230468 0 24 10.765625 24 24 0 13.230469-10.769532 24-24 24zm0-32c-4.417969 0-8 3.582032-8 8 0 4.414063 3.582031 8 8 8 4.414062 0 8-3.585937 8-8 0-4.417968-3.585938-8-8-8zm0 0"/></svg>