<svg id="Layer_5" enable-background="new 0 0 64 64" height="512" viewBox="0 0 64 64" width="512" xmlns="http://www.w3.org/2000/svg"><path d="m54 40v4h-3-3v-4z" fill="#aab2bd"/><path d="m62 36v2c0 1.1-.9 2-2 2h-6-6-6c-1.1 0-2-.9-2-2v-2z" fill="#ccd1d9"/><circle cx="53" cy="11" fill="#69d6f4" r="9"/><path d="m62 26v10h-22v-10c0-1.1.9-2 2-2h18c1.1 0 2 .9 2 2z" fill="#69d6f4"/><path d="m16 4v2h-14v-2c0-1.1.9-2 2-2h10c1.1 0 2 .9 2 2z" fill="#aab2bd"/><path d="m16 20v2c0 1.1-.9 2-2 2h-10c-1.1 0-2-.9-2-2v-2z" fill="#aab2bd"/><path d="m16 13v7h-14v-14h14z" fill="#b4dd7f"/><path d="m12 28c5.52 0 10 4.48 10 10s-4.48 10-10 10-10-4.48-10-10 4.48-10 10-10z" fill="#ffeaa7"/><circle cx="12" cy="42" fill="#ff826e" r="2"/><path d="m34 42.2c4.56.93 8 4.96 8 9.8 0 5.52-4.48 10-10 10s-10-4.48-10-10c0-4.84 3.44-8.87 8-9.8v4.15c-2.33.82-4 3.04-4 5.65 0 3.31 2.69 6 6 6s6-2.69 6-6c0-2.61-1.67-4.83-4-5.65z" fill="#ff826e"/><path d="m34 46.35v3.65c0 1.1-.9 2-2 2s-2-.9-2-2v-3.65-4.15-2.2c0-1.1.9-2 2-2 .55 0 1.05.22 1.41.59.37.36.59.86.59 1.41v2.2z" fill="#fc6e51"/><path d="m60 23h-18c-1.654 0-3 1.346-3 3v12c0 1.654 1.346 3 3 3h5v2h-2v2h5v5c0 .551-.449 1-1 1h-6.047c-.413-4.509-3.592-8.344-7.953-9.579v-1.421c0-1.654-1.346-3-3-3s-3 1.346-3 3v1.421c-4.361 1.235-7.54 5.071-7.953 9.579h-7.047c-.551 0-1-.449-1-1v-1.051c5.598-.507 10-5.221 10-10.949 0-6.065-4.935-11-11-11s-11 4.935-11 11c0 5.728 4.402 10.442 10 10.949v1.051c0 1.654 1.346 3 3 3h7.051c.507 5.598 5.221 10 10.949 10s10.442-4.402 10.949-10h6.051c1.654 0 3-1.346 3-3v-5h5v-2h-2v-2h5c1.654 0 3-1.346 3-3v-12c0-1.654-1.346-3-3-3zm-57 15c0-4.962 4.038-9 9-9s9 4.038 9 9-4.038 9-9 9-9-4.038-9-9zm29 15c1.654 0 3-1.346 3-3v-1.99c1.234.928 2 2.396 2 3.99 0 2.757-2.243 5-5 5s-5-2.243-5-5c0-1.594.766-3.062 2-3.99v1.99c0 1.654 1.346 3 3 3zm-1-13c0-.551.449-1 1-1s1 .449 1 1v10c0 .551-.449 1-1 1s-1-.449-1-1zm1 21c-4.962 0-9-4.038-9-9 0-3.841 2.462-7.225 6-8.478v2.181c-2.413 1.151-4 3.587-4 6.298 0 3.86 3.14 7 7 7s7-3.14 7-7c0-2.71-1.587-5.147-4-6.298v-2.181c3.538 1.253 6 4.637 6 8.478 0 4.962-4.038 9-9 9zm10-36h18c.551 0 1 .449 1 1v9h-20v-9c0-.551.449-1 1-1zm11 18h-4v-2h4zm7-4h-18c-.551 0-1-.449-1-1v-1h20v1c0 .551-.449 1-1 1z"/><path d="m4 25h10c1.654 0 3-1.346 3-3v-8h10c.551 0 1 .449 1 1v13h2v-13c0-1.654-1.346-3-3-3h-10v-8c0-1.654-1.346-3-3-3h-10c-1.654 0-3 1.346-3 3v18c0 1.654 1.346 3 3 3zm10-2h-10c-.551 0-1-.449-1-1v-1h12v1c0 .551-.449 1-1 1zm-11-4v-12h12v12zm1-16h10c.551 0 1 .449 1 1v1h-12v-1c0-.551.449-1 1-1z"/><path d="m15 42c0-1.654-1.346-3-3-3s-3 1.346-3 3 1.346 3 3 3 3-1.346 3-3zm-4 0c0-.551.449-1 1-1s1 .449 1 1-.449 1-1 1-1-.449-1-1z"/><path d="m15.536 38.464 1.414-1.414c-2.729-2.729-7.17-2.729-9.899 0l1.414 1.414c1.949-1.949 5.121-1.949 7.071 0z"/><path d="m18.364 35.636 1.414-1.414c-4.289-4.289-11.268-4.289-15.557 0l1.414 1.414c3.511-3.509 9.219-3.509 12.729 0z"/><path d="m28 34h2v2h-2z"/><path d="m28 30h2v2h-2z"/><path d="m34 34h2v2h-2z"/><path d="m34 30h2v2h-2z"/><path d="m36 13c0-.551.449-1 1-1h6.051c.503 5.046 4.773 9 9.949 9 5.514 0 10-4.486 10-10s-4.486-10-10-10c-5.177 0-9.446 3.954-9.949 9h-6.051c-1.654 0-3 1.346-3 3v15h2zm17-10c.313 0 .983 1.023 1.462 3h-2.924c.479-1.977 1.149-3 1.462-3zm1.819 5c.077.614.134 1.277.161 2h-3.962c.027-.723.085-1.386.161-2zm-1.819 11c-.313 0-.983-1.023-1.462-3h2.924c-.479 1.977-1.149 3-1.462 3zm-1.819-5c-.077-.614-.134-1.277-.161-2h3.962c-.027.723-.085 1.386-.161 2zm5.8-2h3.95c-.088.698-.263 1.369-.52 2h-3.579c.074-.657.125-1.327.149-2zm3.95-2h-3.95c-.024-.673-.075-1.343-.149-2h3.579c.256.631.432 1.302.52 2zm-11.912 0h-3.95c.088-.698.263-1.369.52-2h3.579c-.074.657-.125 1.327-.149 2zm0 2c.024.673.075 1.343.149 2h-3.579c-.256-.631-.432-1.302-.52-2zm-2.254 4h2.719c.192.919.44 1.771.752 2.498-1.373-.508-2.57-1.377-3.471-2.498zm8.999 2.498c.312-.727.56-1.579.752-2.498h2.719c-.901 1.121-2.098 1.99-3.471 2.498zm3.471-12.498h-2.719c-.192-.919-.44-1.771-.752-2.498 1.373.508 2.57 1.377 3.471 2.498zm-8.999-2.498c-.312.727-.559 1.579-.752 2.498h-2.719c.901-1.121 2.098-1.99 3.471-2.498z"/></svg>