<svg height="512pt" viewBox="0 -66 512 512" width="512pt" xmlns="http://www.w3.org/2000/svg"><g fill-rule="evenodd"><path d="m26 40h460v-10c0-11-9-20-20-20h-420c-10.996094 0-20 9.003906-20 20zm0 0" fill="#808080"/><path d="m486 40h-460v260h460zm-230 30 86.601562 50v100l-86.601562 50-86.601562-50v-100zm0 0" fill="#8eecf0"/><path d="m299.300781 95-43.300781-25-43.300781 25-43.304688 25 43.304688 25zm0 0" fill="#ae5e3c"/><path d="m299.300781 95-86.601562 50 43.300781 25 86.601562-50zm0 0" fill="#ae5e3c"/><path d="m256 170-43.300781-25-43.304688-25v100l43.304688 25 43.300781 25zm0 0" fill="#db8c60"/><path d="m342.601562 120-86.601562 50v100l86.601562-50zm0 0" fill="#db8c60"/><path d="m456 300h-430v30h173.425781l9.855469 7.160156h93.4375l9.851562-7.160156h173.429688v-30zm0 0" fill="#808080"/><path d="m302.71875 337.160156h-93.4375l-9.855469-7.160156h-189.425781v20c0 11 9 20 20 20h452c11 0 20-9 20-20v-20h-189.429688zm0 0" fill="#808080"/></g><path d="m85.753906 20h.269532c5.523437 0 10-4.476562 10-10s-4.476563-10-10-10h-.269532c-5.519531 0-10 4.476562-10 10s4.476563 10 10 10zm0 0"/><path d="m502 320h-6v-290c0-16.542969-13.457031-30-30-30h-340.011719c-5.519531 0-10 4.476562-10 10s4.480469 10 10 10h340.011719c5.515625 0 10 4.484375 10 10h-440c0-5.515625 4.484375-10 10-10h11.023438c5.523437 0 10-4.476562 10-10s-4.476563-10-10-10h-11.023438c-16.542969 0-30 13.457031-30 30v290h-6c-5.523438 0-10 4.480469-10 10v20c0 16.542969 13.457031 30 30 30h452c16.542969 0 30-13.457031 30-30v-20c0-5.523438-4.476562-10-10-10zm-466-270h440v240h-440zm0 260h440v10h-163.429688c-2.109374 0-4.167968.667969-5.875 1.910156l-7.226562 5.25h-86.9375l-7.226562-5.25c-1.707032-1.242187-3.765626-1.910156-5.878907-1.910156h-163.425781zm446 50h-452c-5.515625 0-10-4.484375-10-10v-10h176.179688l7.226562 5.25c1.707031 1.242188 3.765625 1.910156 5.875 1.910156h93.4375c2.113281 0 4.167969-.667968 5.878906-1.910156l7.226563-5.25h176.179687v10c-.003906 5.515625-4.488281 10-10.003906 10zm0 0"/><path d="m352.515625 118.6875c-.003906-.023438-.007813-.042969-.011719-.066406-.050781-.371094-.128906-.734375-.222656-1.101563-.023438-.097656-.050781-.191406-.078125-.289062-.085937-.296875-.1875-.585938-.300781-.875-.035156-.097657-.070313-.191407-.109375-.285157-.15625-.363281-.328125-.722656-.527344-1.070312-.203125-.347656-.429687-.675781-.664063-.988281-.0625-.085938-.128906-.164063-.195312-.246094-.191406-.242187-.390625-.472656-.601562-.6875-.074219-.078125-.144532-.152344-.21875-.222656-.265626-.257813-.539063-.503907-.828126-.730469-.023437-.019531-.042968-.039062-.066406-.054688-.324218-.25-.664062-.472656-1.015625-.679687-.023437-.015625-.046875-.035156-.074219-.050781l-86.601562-50c-3.09375-1.785156-6.90625-1.785156-10 0l-86.605469 50c-.023437.015625-.042969.035156-.066406.046875-.355469.207031-.695313.433593-1.023437.683593-.019532.015626-.035157.03125-.050782.042969-.296875.230469-.578125.480469-.84375.746094-.074218.070313-.144531.140625-.210937.214844-.214844.21875-.414063.453125-.609375.695312-.066406.082031-.128906.15625-.191406.238281-.234376.316407-.460938.644532-.664063.992188-.199219.351562-.371094.710938-.527344 1.070312-.039062.09375-.074219.191407-.109375.285157-.117187.289062-.214844.582031-.300781.875-.027344.097656-.054687.191406-.082031.289062-.089844.367188-.167969.730469-.21875 1.101563-.003906.023437-.011719.046875-.011719.070312-.054687.40625-.078125.816406-.082031 1.222656 0 .03125-.007813.058594-.007813.085938v100c0 3.574219 1.90625 6.875 5 8.660156l86.605469 50c.027344.015625.050781.023438.078125.039063.355469.203125.71875.382812 1.097656.539062.027344.011719.054688.019531.078125.03125.339844.136719.691406.253907 1.050782.351563.101562.03125.199218.054687.300781.078125.292969.074219.59375.132812.898437.175781.101563.015625.203125.035156.308594.046875.390625.046875.785156.078125 1.1875.078125s.796875-.03125 1.1875-.078125c.105469-.011719.207031-.03125.3125-.046875.300781-.042969.601562-.101562.898438-.175781.097656-.023438.199218-.046875.296874-.078125.359376-.097656.710938-.214844 1.050782-.351563.027344-.011719.050781-.019531.078125-.03125.378906-.15625.746093-.339843 1.097656-.539062.027344-.015625.054687-.023438.078125-.039063l86.605469-50c3.09375-1.785156 5-5.085937 5-8.660156v-100c0-.027344-.003907-.058594-.007813-.085938-.003906-.410156-.027344-.816406-.082031-1.226562zm-96.515625 39.765625-23.300781-13.453125 66.601562-38.453125 23.300781 13.453125zm0-76.90625 23.300781 13.453125-66.601562 38.453125-23.304688-13.453125zm-76.605469 55.773437 66.605469 38.453126v76.90625l-66.605469-38.453126zm86.605469 115.359376v-76.90625l66.601562-38.453126v76.90625zm0 0"/><path d="m456 260h-41.035156c-5.523438 0-10 4.476562-10 10 0 5.519531 4.476562 10 10 10h41.035156c5.519531 0 10-4.480469 10-10 0-5.523438-4.476562-10-10-10zm0 0"/><path d="m386.234375 260h-.238281c-5.519532 0-10 4.480469-10 10 0 5.523438 4.480468 10 10 10h.238281c5.519531 0 10-4.476562 10-10 0-5.519531-4.480469-10-10-10zm0 0"/></svg>